<svg width="21" height="21" viewBox="0 0 21 21" fill="none" xmlns="http://www.w3.org/2000/svg">
<path d="M1.54624 7.97445C1.21454 8.30608 0.951427 8.69981 0.771911 9.13315C0.592396 9.56649 0.5 10.0309 0.5 10.5C0.5 10.9691 0.592396 11.4335 0.771911 11.8669C0.951427 12.3002 1.21454 12.6939 1.54624 13.0255L7.97535 19.4537C8.30695 19.7854 8.70065 20.0485 9.13396 20.2281C9.56727 20.4076 10.0317 20.5 10.5007 20.5C10.9697 20.5 11.4342 20.4076 11.8675 20.2281C12.3008 20.0485 12.6945 19.7854 13.0261 19.4537L19.4538 13.0255C19.7855 12.6939 20.0486 12.3002 20.2281 11.8669C20.4076 11.4335 20.5 10.9691 20.5 10.5C20.5 10.0309 20.4076 9.56649 20.2281 9.13315C20.0486 8.69981 19.7855 8.30608 19.4538 7.97445L13.0261 1.54631C12.6945 1.2146 12.3008 0.951459 11.8675 0.771931C11.4342 0.592403 10.9697 0.5 10.5007 0.5C10.0317 0.5 9.56727 0.592403 9.13396 0.771931C8.70065 0.951459 8.30695 1.2146 7.97535 1.54631L1.54624 7.97445ZM2.5561 12.0156C2.357 11.8166 2.19905 11.5804 2.09129 11.3203C1.98353 11.0602 1.92807 10.7815 1.92807 10.5C1.92807 10.2185 1.98353 9.93976 2.09129 9.6797C2.19905 9.41965 2.357 9.18337 2.5561 8.98439L8.98521 2.55624C9.18418 2.35713 9.42044 2.19917 9.68048 2.09141C9.94051 1.98364 10.2192 1.92817 10.5007 1.92817C10.7822 1.92817 11.0609 1.98364 11.321 2.09141C11.581 2.19917 11.8172 2.35713 12.0162 2.55624L18.4439 8.98439C18.643 9.18337 18.8009 9.41965 18.9087 9.6797C19.0165 9.93976 19.0719 10.2185 19.0719 10.5C19.0719 10.7815 19.0165 11.0602 18.9087 11.3203C18.8009 11.5804 18.643 11.8166 18.4439 12.0156L12.0162 18.4438C11.8172 18.6429 11.581 18.8008 11.321 18.9086C11.0609 19.0164 10.7822 19.0718 10.5007 19.0718C10.2192 19.0718 9.94051 19.0164 9.68048 18.9086C9.42044 18.8008 9.18418 18.6429 8.98521 18.4438L2.5561 12.0156ZM11.7177 5.70746C11.5836 5.57354 11.4018 5.49837 11.2123 5.49851C11.0227 5.49864 10.841 5.57406 10.7071 5.70818C10.5732 5.84229 10.498 6.02411 10.4982 6.21365C10.4983 6.40318 10.5737 6.5849 10.7078 6.71882L11.632 7.64162H9.7851C9.21686 7.64162 8.67189 7.86737 8.27008 8.26921C7.86827 8.67104 7.64254 9.21605 7.64254 9.78433V13.3555C7.64254 13.545 7.71778 13.7266 7.85172 13.8606C7.98565 13.9945 8.16731 14.0698 8.35672 14.0698C8.54614 14.0698 8.72779 13.9945 8.86173 13.8606C8.99567 13.7266 9.07091 13.545 9.07091 13.3555V9.78433C9.07091 9.59491 9.14616 9.41324 9.28009 9.27929C9.41403 9.14535 9.59569 9.0701 9.7851 9.0701H11.632L10.7078 9.99289C10.5737 10.1268 10.4983 10.3085 10.4982 10.4981C10.498 10.6876 10.5732 10.8694 10.7071 11.0035C10.841 11.1377 11.0227 11.2131 11.2123 11.2132C11.4018 11.2133 11.5836 11.1382 11.7177 11.0043L13.8603 8.86154C13.9268 8.79519 13.9795 8.71637 14.0155 8.6296C14.0515 8.54283 14.0701 8.4498 14.0701 8.35586C14.0701 8.26191 14.0515 8.16889 14.0155 8.08211C13.9795 7.99534 13.9268 7.91652 13.8603 7.85018L11.7177 5.70746Z" fill="#6D6E71"/>
</svg>
