<svg width="93" height="115" viewBox="0 0 93 115" fill="none" xmlns="http://www.w3.org/2000/svg">
<g filter="url(#filter0_d_1452_20466)">
<path d="M76.7899 40.3572C76.7937 45.1773 75.5731 49.9194 73.2427 54.1387C73.0687 54.4545 72.8895 54.7665 72.7049 55.0747C66.6952 50.6235 60.7908 45.8519 55.6576 40.9934C56.3587 39.4532 56.662 37.7618 56.5398 36.074C56.4175 34.3862 55.8736 32.7561 54.9578 31.3331C54.042 29.91 52.7838 28.7396 51.2983 27.9291C49.8128 27.1186 48.1477 26.6938 46.4555 26.6938C44.7633 26.6938 43.0981 27.1186 41.6127 27.9291C40.1272 28.7396 38.8689 29.91 37.9532 31.3331C37.0374 32.7561 36.4935 34.3862 36.3712 36.074C36.2489 37.7618 36.5522 39.4532 37.2533 40.9934C32.1202 45.8519 26.2135 50.6258 20.1947 55.077C17.5248 50.6316 16.1165 45.5427 16.1211 40.3572C16.1211 24.143 29.7035 11 46.4555 11C63.2075 11 76.7899 24.143 76.7899 40.3572Z" fill="url(#paint0_linear_1452_20466)"/>
<path d="M72.665 55.0654C74.5965 56.5484 76.0635 57.6652 76.0635 57.6652C76.3048 57.8313 76.51 58.0448 76.6663 58.2926C76.8227 58.5404 76.9271 58.8174 76.9731 59.1068C77.0192 59.3962 77.0059 59.692 76.9342 59.9761C76.8625 60.2602 76.7338 60.5268 76.5559 60.7596C76.378 60.9925 76.1546 61.1868 75.8993 61.3307C75.644 61.4745 75.3622 61.5651 75.0709 61.5967C74.7796 61.6283 74.4848 61.6005 74.2046 61.5147C73.9244 61.429 73.6646 61.2872 73.4408 61.098L70.1957 58.6218C70.1293 58.7019 51.6586 77.8454 51.6586 77.8454C50.9848 78.5331 50.1792 79.078 49.29 79.4474C48.3929 79.8205 47.4308 80.0126 46.4591 80.0126C45.4874 80.0126 44.5254 79.8205 43.6282 79.4474C42.7414 79.0786 41.9387 78.5336 41.2687 77.8454C41.2687 77.8454 22.9033 58.8506 22.7317 58.6218L19.5484 61.0591C19.3244 61.246 19.0648 61.3857 18.7854 61.4697C18.506 61.5537 18.2125 61.5804 17.9225 61.548C17.6326 61.5156 17.3522 61.4248 17.0982 61.2812C16.8442 61.1376 16.6219 60.9441 16.4447 60.7123C16.2675 60.4806 16.139 60.2153 16.0669 59.9326C15.9949 59.6499 15.9808 59.3555 16.0256 59.0672C16.0703 58.7788 16.1729 58.5026 16.3272 58.2549C16.4815 58.0073 16.6843 57.7935 16.9234 57.6263C16.9234 57.6263 18.1478 56.6582 20.1022 55.07" fill="white"/>
<path d="M56.5692 36.7939C56.5693 38.2432 56.257 39.6755 55.6538 40.9934C52.626 38.167 49.7911 35.1409 47.168 31.9354H45.7331C43.305 34.9494 40.1743 37.6979 36.9978 40.7004C36.4142 39.4234 36.341 38.2906 36.341 36.7939C36.3208 35.4532 36.5675 34.1219 37.0666 32.8774C37.5657 31.6329 38.3073 30.5001 39.2483 29.5448C40.1893 28.5896 41.3108 27.831 42.5476 27.3132C43.7845 26.7955 45.112 26.5288 46.4528 26.5288C47.7937 26.5288 49.1212 26.7955 50.358 27.3132C51.5949 27.831 52.7164 28.5896 53.6574 29.5448C54.5983 30.5001 55.34 31.6329 55.8391 32.8774C56.3382 34.1219 56.5848 35.4532 56.5647 36.7939H56.5692Z" fill="#6D6E71"/>
<path d="M55.666 40.9934C54.8607 42.7579 53.5651 44.2536 51.9336 45.3024C50.3021 46.3512 48.4034 46.9088 46.4639 46.9088C44.5243 46.9088 42.6257 46.3512 40.9942 45.3024C39.3626 44.2536 38.067 42.7579 37.2617 40.9934C40.2887 38.1678 43.1229 35.1425 45.7453 31.9377H47.1802C49.8033 35.1425 52.6383 38.1678 55.666 40.9934Z" fill="#6D6E71"/>
<path d="M76.4708 60.6953C76.1229 61.151 75.6083 61.4498 75.0401 61.5262C74.472 61.6026 73.8967 61.4503 73.4408 61.1027L70.1957 58.6265C70.1293 58.7066 51.6586 77.8501 51.6586 77.8501C50.9848 78.5379 50.1792 79.0827 49.29 79.4521C48.3929 79.8252 47.4308 80.0173 46.4591 80.0173C45.4874 80.0173 44.5254 79.8252 43.6282 79.4521C42.7414 79.0833 41.9387 78.5383 41.2687 77.8501C41.2687 77.8501 22.9033 58.8554 22.7317 58.6265L19.5484 61.0592C19.3244 61.2462 19.0648 61.3858 18.7854 61.4699C18.506 61.5539 18.2125 61.5805 17.9225 61.5481C17.6326 61.5157 17.3522 61.425 17.0982 61.2814C16.8442 61.1378 16.6219 60.9443 16.4447 60.7125C16.2675 60.4807 16.139 60.2155 16.0669 59.9327C15.9949 59.65 15.9808 59.3556 16.0256 59.0673C16.0703 58.779 16.1729 58.5027 16.3272 58.2551C16.4815 58.0075 16.6843 57.7936 16.9234 57.6264C16.9234 57.6264 39.3853 39.824 45.7359 31.9377H47.1708C50.3496 35.8832 54.3042 39.8721 58.6844 43.774V40.1352C58.6841 40.0026 58.71 39.8712 58.7606 39.7487C58.8112 39.6261 58.8856 39.5147 58.9793 39.4209C59.0731 39.3271 59.1845 39.2528 59.3071 39.2022C59.4297 39.1516 59.561 39.1257 59.6936 39.126H63.2981C63.4307 39.1257 63.5621 39.1516 63.6846 39.2022C63.8072 39.2528 63.9186 39.3271 64.0124 39.4209C64.1062 39.5147 64.1805 39.6261 64.2311 39.7487C64.2817 39.8712 64.3076 40.0026 64.3073 40.1352V48.5616C67.0352 50.7906 76.0635 57.6699 76.0635 57.6699C76.5173 58.0181 76.8148 58.5317 76.8911 59.0986C76.9675 59.6655 76.8164 60.2395 76.4708 60.6953Z" fill="white"/>
<path d="M46.1849 31.5006C46.1928 31.3586 46.2174 31.218 46.2582 31.0818C46.2986 30.9548 46.3483 30.8308 46.4069 30.7111C46.5284 30.4753 46.6774 30.2548 46.8509 30.0543C47.2008 29.6688 47.6085 29.3399 48.0592 29.0794C48.9362 28.5881 49.8797 28.2265 50.8604 28.006C51.8134 27.7916 52.7811 27.6485 53.7554 27.5781C53.9842 27.5575 54.236 27.546 54.4763 27.5369C54.7166 27.5277 54.9591 27.5163 55.1971 27.514H55.7372H55.886C56.0851 27.514 56.2796 27.4957 56.4673 27.4797C57.1187 27.4441 57.7454 27.219 58.2706 26.832C58.4049 26.719 58.5318 26.5974 58.6505 26.4682C58.7398 26.3766 58.8382 26.3125 58.9732 26.1775C59.3732 25.717 59.6719 25.1774 59.8497 24.5939C60.1358 23.8432 60.3738 22.9507 60.7239 21.9209V21.898C60.7355 21.8636 60.7538 21.8319 60.7777 21.8047C60.8016 21.7774 60.8307 21.7552 60.8633 21.7392C60.8958 21.7233 60.9312 21.7139 60.9674 21.7117C61.0036 21.7095 61.0398 21.7145 61.0741 21.7263C61.1038 21.7311 61.1325 21.7412 61.1588 21.7561C61.6122 22.083 62.0075 22.4837 62.3282 22.9415C62.6501 23.3916 62.9088 23.8836 63.0971 24.4039C63.1943 24.6746 63.2708 24.9523 63.326 25.2346C63.3898 25.5358 63.4258 25.8423 63.4335 26.15C63.4592 26.83 63.3527 27.5085 63.12 28.1479C62.8551 28.8651 62.4172 29.5057 61.8453 30.0131C61.2867 30.5019 60.6212 30.8531 59.9024 31.0383C59.2857 31.1949 58.6503 31.265 58.0143 31.2466C57.4585 31.235 56.9037 31.1914 56.3529 31.1161C56.0897 31.0795 55.8288 31.0406 55.577 30.9903L55.3871 30.9537L55.2086 30.9102L54.8905 30.8438C54.6777 30.7957 54.4671 30.7546 54.2543 30.7134C54.0414 30.6722 53.8309 30.631 53.6181 30.5944C52.7819 30.4398 51.9376 30.3328 51.0892 30.274C50.2605 30.2043 49.4262 30.2458 48.6085 30.3975C48.2142 30.4719 47.8332 30.6045 47.478 30.7912C47.3026 30.888 47.1391 31.0047 46.9905 31.139C46.9189 31.2049 46.8523 31.276 46.7914 31.3519C46.7346 31.4237 46.6841 31.5003 46.6404 31.5807L46.5992 31.6448C46.5675 31.6944 46.518 31.7299 46.4609 31.7439C46.4038 31.758 46.3435 31.7495 46.2925 31.7203C46.2556 31.6976 46.2259 31.6649 46.2069 31.626C46.1879 31.5872 46.1802 31.5437 46.1849 31.5006Z" fill="white"/>
<path d="M46.4113 93.6272C49.676 93.6272 52.3225 90.9806 52.3225 87.7159C52.3225 84.4512 49.676 81.8047 46.4113 81.8047C43.1466 81.8047 40.5 84.4512 40.5 87.7159C40.5 90.9806 43.1466 93.6272 46.4113 93.6272Z" fill="url(#paint1_linear_1452_20466)"/>
<path d="M45.8832 60.2034V62.9679C45.7359 62.3882 45.4624 61.8483 45.0822 61.3865L44.7344 60.954L45.8832 60.2034Z" fill="url(#paint2_linear_1452_20466)"/>
<path d="M43.0236 63.897C43.0241 64.1396 42.9526 64.3769 42.8182 64.5788C42.6837 64.7808 42.4925 64.9384 42.2685 65.0317C42.0445 65.1249 41.7979 65.1497 41.5599 65.1028C41.3219 65.0559 41.1031 64.9395 40.9312 64.7682C40.7593 64.597 40.6421 64.3787 40.5943 64.1408C40.5466 63.903 40.5704 63.6563 40.6628 63.432C40.7552 63.2076 40.9121 63.0158 41.1136 62.8806C41.315 62.7454 41.5521 62.6731 41.7947 62.6726C42.1196 62.6732 42.4312 62.8023 42.6614 63.0316C42.8916 63.261 43.0218 63.572 43.0236 63.897Z" fill="url(#paint3_linear_1452_20466)"/>
<path d="M45.12 63.2744C45.0068 62.7706 44.7772 62.3003 44.4494 61.9013L43.8109 61.1186C43.7748 61.0743 43.7483 61.0229 43.7333 60.9677C43.7184 60.9125 43.7152 60.8547 43.724 60.7982C43.7335 60.7418 43.7544 60.6879 43.7855 60.6399C43.8166 60.5919 43.8572 60.5507 43.9048 60.519L45.1108 59.7295C39.417 59.2466 38.5588 62.7938 38.5245 62.9494C38.5258 62.9593 38.5258 62.9693 38.5245 62.9792C38.5245 62.9792 38.5245 63.0089 38.5245 63.0112C38.3943 63.5035 38.3833 64.0197 38.4924 64.5171C38.607 65.0204 38.8365 65.4903 39.163 65.8902L39.8015 66.6751C39.8378 66.7198 39.8644 66.7716 39.8793 66.8272C39.8943 66.8828 39.8974 66.9409 39.8884 66.9978C39.8675 67.1112 39.8025 67.2116 39.7076 67.277L38.9593 67.7668C39.0668 67.8858 39.1881 67.9956 39.2957 68.1169C44.2709 68.2153 45.049 64.9931 45.0811 64.8397C45.08 64.8291 45.08 64.8184 45.0811 64.8077C45.0811 64.8077 45.0811 64.7779 45.0811 64.7757C45.214 64.2856 45.2274 63.7707 45.12 63.2744ZM41.7948 65.9428C41.3908 65.9424 40.996 65.8222 40.6602 65.5974C40.3245 65.3727 40.0629 65.0535 39.9085 64.6802C39.7541 64.3068 39.7139 63.8961 39.7928 63.4999C39.8717 63.1037 40.0663 62.7397 40.352 62.4541C40.6376 62.1684 41.0016 61.9738 41.3978 61.8949C41.794 61.816 42.2047 61.8562 42.5781 62.0106C42.9514 62.165 43.2706 62.4266 43.4953 62.7623C43.7201 63.0981 43.8402 63.4929 43.8407 63.8969C43.8371 64.4384 43.6204 64.9567 43.2375 65.3396C42.8546 65.7225 42.3363 65.9392 41.7948 65.9428Z" fill="url(#paint4_linear_1452_20466)"/>
<path d="M45.8815 58.2581V58.9858C38.8534 58.0704 37.7709 62.5811 37.7183 62.8054C37.5514 63.4236 37.5373 64.0731 37.6771 64.698C37.8184 65.3265 38.1044 65.9135 38.5124 66.4121L38.8603 66.84L38.4026 67.1398C36.5715 64.908 35.4976 62.1518 35.3359 59.2696V58.2581H45.8815Z" fill="url(#paint5_linear_1452_20466)"/>
<path d="M45.8815 64.9565V71.9571C43.7887 71.3396 41.8426 70.3051 40.1602 68.9157C45.0095 68.6342 45.8403 65.1854 45.8815 64.9909V64.9565Z" fill="url(#paint6_linear_1452_20466)"/>
<path d="M47.1055 58.2581V63.0456C47.4351 62.8571 47.8025 62.7437 48.1811 62.7138C48.0673 61.8485 48.2928 60.9728 48.8104 60.2702C49.328 59.5675 50.0974 59.0924 50.9575 58.9445C51.8176 58.7965 52.7016 58.9872 53.4242 59.4766C54.1468 59.966 54.652 60.716 54.8338 61.5696C55.122 61.7011 55.3913 61.8704 55.6348 62.073C55.7344 62.1599 55.7958 62.2825 55.8058 62.4143C55.8158 62.546 55.7736 62.6765 55.6883 62.7774C55.603 62.8783 55.4814 62.9417 55.3498 62.9537C55.2182 62.9658 55.0871 62.9257 54.9849 62.842C54.7625 62.6522 54.5063 62.5062 54.2296 62.4117C54.223 62.4095 54.2157 62.4095 54.209 62.4117C53.962 62.3287 53.7031 62.2862 53.4424 62.2859C53.1727 62.286 52.905 62.3317 52.6506 62.4209C52.5243 62.4646 52.3859 62.4563 52.2657 62.398C52.1455 62.3396 52.0535 62.2359 52.0098 62.1096C51.9661 61.9834 51.9743 61.845 52.0327 61.7248C52.0911 61.6046 52.1948 61.5126 52.321 61.4689C52.6816 61.3439 53.0607 61.2804 53.4424 61.2812C53.5246 61.2744 53.6073 61.2744 53.6896 61.2812C53.4513 60.7364 53.0167 60.3013 52.4723 60.0624C51.9278 59.8235 51.3134 59.7983 50.7512 59.9919C50.189 60.1854 49.7203 60.5835 49.4382 61.107C49.1562 61.6304 49.0816 62.2408 49.2292 62.8168C49.4631 62.8905 49.6851 62.9976 49.8883 63.1349C49.9433 63.1711 49.9906 63.2178 50.0276 63.2723C50.0645 63.3268 50.0904 63.3881 50.1037 63.4526C50.117 63.5171 50.1174 63.5835 50.105 63.6482C50.0926 63.7129 50.0676 63.7745 50.0313 63.8295C49.9951 63.8845 49.9484 63.9318 49.8939 63.9687C49.8394 64.0057 49.7782 64.0316 49.7137 64.0448C49.6492 64.0581 49.5827 64.0586 49.518 64.0462C49.4534 64.0337 49.3918 64.0087 49.3368 63.9725C49.1572 63.8528 48.9558 63.7696 48.7441 63.7276H48.7303C48.6261 63.7084 48.5204 63.6985 48.4145 63.6979C48.1627 63.6978 47.9142 63.7551 47.6878 63.8653C47.4614 63.9755 47.263 64.1358 47.1078 64.3341V66.3205C47.1822 66.4141 47.2666 66.4992 47.3595 66.5746C47.4124 66.6169 47.4562 66.6694 47.4884 66.7291C47.5206 66.7887 47.5405 66.8541 47.5469 66.9216C47.5533 66.9891 47.5461 67.0571 47.5257 67.1217C47.5053 67.1863 47.4721 67.2462 47.4282 67.2977C47.3486 67.397 47.2338 67.4617 47.1078 67.4785V71.964C49.1742 71.3532 51.0987 70.3381 52.7696 68.9775C52.6722 68.9729 52.5783 68.9399 52.4994 68.8827C52.4205 68.8255 52.3599 68.7465 52.3252 68.6555C52.2905 68.5644 52.283 68.4652 52.3038 68.3699C52.3246 68.2747 52.3728 68.1876 52.4423 68.1193L53.447 67.1146C53.542 67.0214 53.6697 66.9692 53.8028 66.9692C53.9359 66.9692 54.0637 67.0214 54.1587 67.1146C54.2542 67.2116 54.3077 67.3424 54.3075 67.4785C54.4036 67.3687 54.4974 67.2497 54.5867 67.1467C54.5486 67.0419 54.5468 66.9274 54.5817 66.8216C54.6166 66.7157 54.686 66.6247 54.7789 66.5631C55.0965 66.3502 55.357 66.0624 55.5373 65.7252C55.7177 65.3881 55.8125 65.0117 55.8133 64.6293C55.8139 64.4962 55.8672 64.3687 55.9616 64.2748C56.0559 64.1809 56.1836 64.1281 56.3168 64.1281C56.3612 64.1266 56.4055 64.1336 56.4472 64.1487C57.1587 62.6191 57.5667 60.966 57.6487 59.281V58.2581H47.1055ZM48.2703 69.5428C48.1934 69.5424 48.1184 69.5186 48.0554 69.4745C47.9923 69.4304 47.9443 69.3681 47.9177 69.2959C47.891 69.2237 47.8871 69.1451 47.9064 69.0706C47.9256 68.9961 47.9672 68.9293 48.0255 68.8791L49.3986 67.6868H48.2543C48.1773 67.6872 48.1021 67.6639 48.0388 67.62C47.9755 67.5762 47.9272 67.514 47.9004 67.4418C47.8737 67.3696 47.8698 67.2909 47.8893 67.2164C47.9088 67.1419 47.9507 67.0752 48.0094 67.0254L50.1629 65.1671C50.2001 65.1324 50.244 65.1056 50.2918 65.0883C50.3396 65.071 50.3904 65.0635 50.4412 65.0663C50.492 65.0691 50.5417 65.0821 50.5873 65.1046C50.6329 65.1271 50.6736 65.1585 50.7067 65.1971C50.7399 65.2357 50.7649 65.2805 50.7803 65.329C50.7957 65.3775 50.8012 65.4286 50.7963 65.4792C50.7915 65.5298 50.7765 65.579 50.7522 65.6236C50.7279 65.6683 50.6948 65.7077 50.655 65.7392L49.2681 66.9339H50.4124C50.4896 66.933 50.5652 66.9559 50.6288 66.9996C50.6925 67.0432 50.7412 67.1055 50.7682 67.1778C50.7952 67.2501 50.7993 67.329 50.7798 67.4037C50.7604 67.4784 50.7184 67.5453 50.6595 67.5952L48.506 69.4512C48.4402 69.5078 48.357 69.5401 48.2703 69.5428ZM52.1448 68.323L51.1401 69.3276C51.094 69.375 51.0389 69.4126 50.9779 69.4381C50.917 69.4637 50.8515 69.4767 50.7854 69.4764C50.7193 69.4771 50.6537 69.4643 50.5927 69.4387C50.5317 69.4131 50.4766 69.3753 50.4307 69.3276C50.3834 69.2812 50.3459 69.2258 50.3203 69.1647C50.2946 69.1036 50.2815 69.038 50.2815 68.9718C50.2815 68.9055 50.2946 68.8399 50.3203 68.7788C50.3459 68.7177 50.3834 68.6623 50.4307 68.6159L51.4354 67.6113C51.5316 67.5268 51.6563 67.4822 51.7842 67.4865C51.9122 67.4907 52.0337 67.5436 52.124 67.6342C52.2144 67.7249 52.2669 67.8466 52.2707 67.9745C52.2746 68.1024 52.2295 68.2271 52.1448 68.323ZM53.1517 66.0596L52.1448 67.0666C52.0503 67.1599 51.9229 67.2125 51.7901 67.2131C51.6904 67.213 51.593 67.1834 51.5102 67.1279C51.4274 67.0724 51.3629 66.9936 51.3249 66.9015C51.2869 66.8093 51.2771 66.708 51.2968 66.6102C51.3165 66.5125 51.3647 66.4228 51.4354 66.3526L52.44 65.3479C52.5353 65.2579 52.6619 65.2086 52.7929 65.2105C52.9239 65.2124 53.0491 65.2653 53.1417 65.3579C53.2344 65.4506 53.2873 65.5757 53.2891 65.7067C53.291 65.8378 53.2417 65.9644 53.1517 66.0596Z" fill="url(#paint7_linear_1452_20466)"/>
<path d="M38.4385 57.036H35.3398V52.1729C35.4001 52.19 35.4627 52.197 35.5252 52.1934H36.9372L38.3836 56.8918C38.3948 56.9422 38.4133 56.9908 38.4385 57.036Z" fill="url(#paint8_linear_1452_20466)"/>
<path d="M40.6616 46.3164C40.6451 46.352 40.6335 46.3898 40.6273 46.4285L38.8285 54.507L37.8948 51.4656C37.8628 51.348 37.7907 51.2452 37.6911 51.1749C37.594 51.1045 37.4769 51.0669 37.357 51.0674H35.5262C35.4656 51.0668 35.4053 51.0761 35.3477 51.0948V46.8199C37.1316 46.8359 38.9124 46.6672 40.6616 46.3164Z" fill="url(#paint9_linear_1452_20466)"/>
<path d="M45.8813 44.0737V51.0949C45.8245 51.076 45.765 51.0667 45.7051 51.0675H45.5358L44.8286 49.1726C44.7843 49.0644 44.7106 48.9709 44.6158 48.9025C44.5204 48.8367 44.4066 48.8031 44.2908 48.8064C44.1717 48.8047 44.0553 48.8417 43.959 48.9117C43.8589 48.981 43.7861 49.0829 43.753 49.2L42.9612 51.7357L41.73 46.4149C41.7071 46.2942 41.6422 46.1856 41.5469 46.1082C43.8926 45.4926 45.2291 44.6207 45.8813 44.0737Z" fill="url(#paint10_linear_1452_20466)"/>
<path d="M45.8841 52.1728V57.0359H39.3984C39.4322 56.9801 39.4562 56.9189 39.4694 56.8551L41.1789 49.1016L42.3232 54.0265C42.3478 54.1458 42.4124 54.2532 42.5063 54.3308C42.6017 54.4123 42.7219 54.4591 42.8472 54.4636C42.9722 54.4762 43.0973 54.4411 43.1974 54.3652C43.2997 54.2937 43.3747 54.1896 43.4102 54.0699L44.3256 51.1109L44.5934 51.8341C44.6369 51.942 44.7109 52.035 44.8062 52.1018C44.9047 52.1677 45.022 52.1999 45.1403 52.1934H45.7056C45.7658 52.1966 45.8262 52.1896 45.8841 52.1728Z" fill="url(#paint11_linear_1452_20466)"/>
<path d="M56.353 57.0359H48.3203C49.2599 56.1259 50.0603 55.0826 50.6958 53.9395L51.4808 53.4246C52.0048 54.237 52.1032 54.237 52.2909 54.237C52.4786 54.237 52.5701 54.237 53.1262 53.4291L54.1515 54.1615C54.1639 54.1713 54.1778 54.179 54.1927 54.1843C54.7961 55.2179 55.5214 56.1752 56.353 57.0359Z" fill="url(#paint12_linear_1452_20466)"/>
<path d="M52.4693 49.7126V50.834H52.1992V49.8202L52.4693 49.7126Z" fill="url(#paint13_linear_1452_20466)"/>
<path d="M53.3772 52.6168L53.2673 52.5344C53.2229 52.5031 53.1727 52.481 53.1197 52.4692C53.0667 52.4574 53.0119 52.4562 52.9584 52.4657C52.9032 52.476 52.8508 52.4978 52.8047 52.5298C52.7585 52.5617 52.7197 52.6031 52.6906 52.6511C52.5648 52.8365 52.4229 53.0447 52.3016 53.2141C52.1894 53.047 52.0567 52.8433 51.9446 52.6625C51.886 52.5696 51.793 52.5038 51.686 52.4794C51.6335 52.4679 51.5792 52.4672 51.5265 52.4775C51.4737 52.4877 51.4237 52.5086 51.3793 52.5389H51.3633C51.48 52.2483 51.5921 51.9508 51.6837 51.6418H52.9675C53.0476 51.8615 53.1827 52.1934 53.3772 52.6168Z" fill="url(#paint14_linear_1452_20466)"/>
<path d="M51.3944 49.969V50.8341C51.3071 50.8337 51.222 50.8619 51.1522 50.9144C51.0824 50.9669 51.0316 51.0407 51.0077 51.1247C50.3124 53.4311 48.9605 55.4852 47.1172 57.036V44.0784C47.9439 44.7331 48.8714 45.2494 49.8634 45.6071C49.3039 45.6436 48.7805 45.8962 48.4038 46.3115C48.0271 46.7268 47.8266 47.2723 47.8447 47.8327C47.8629 48.3931 48.0982 48.9246 48.5009 49.3147C48.9037 49.7048 49.4423 49.923 50.003 49.9233C50.2366 49.9232 50.4686 49.8845 50.6896 49.8088C50.9134 49.9028 51.152 49.957 51.3944 49.969Z" fill="url(#paint15_linear_1452_20466)"/>
<path d="M55.1431 47.3577C55.1296 47.2264 55.0973 47.0977 55.047 46.9755C55.0059 46.8781 54.9545 46.7852 54.8937 46.6986C53.5485 46.5857 52.2178 46.3404 50.9208 45.9663H50.8865L50.7812 46.2226C50.7812 46.2501 50.7606 46.2753 50.7515 46.3027C50.7226 46.3955 50.7012 46.4904 50.6874 46.5865L50.6714 46.7307L50.5661 46.8268C50.4307 46.9562 50.3232 47.112 50.2503 47.2845L49.5042 46.9778C49.5875 46.7743 49.7034 46.5856 49.8475 46.4194C49.5135 46.4532 49.2039 46.6098 48.9787 46.8588C48.7536 47.1079 48.6289 47.4316 48.6289 47.7674C48.6289 48.1031 48.7536 48.4269 48.9787 48.6759C49.2039 48.925 49.5135 49.0816 49.8475 49.1153L50.4402 48.6462C50.5596 48.8014 50.712 48.928 50.8865 49.0169C51.0788 49.1169 51.2922 49.1695 51.509 49.1702C51.5772 49.1718 51.6455 49.1665 51.7126 49.1542L52.2596 48.9254C52.3585 48.863 52.4473 48.7858 52.5228 48.6965L52.7516 48.4356L53.0446 48.6302C53.2682 48.7775 53.5297 48.857 53.7975 48.859C53.9088 48.8601 54.0198 48.8455 54.127 48.8155C54.1617 48.8087 54.1955 48.7979 54.2277 48.7835C54.2624 48.7725 54.296 48.7588 54.3284 48.7423C54.489 48.675 54.6339 48.5753 54.7541 48.4494C54.7678 48.4356 54.7815 48.4242 54.793 48.4105C54.8508 48.347 54.9021 48.278 54.9463 48.2045C54.9779 48.1525 55.0054 48.0982 55.0287 48.042C55.1036 47.8718 55.1425 47.6879 55.1431 47.5019C55.1457 47.4539 55.1457 47.4058 55.1431 47.3577ZM49.4401 48.4837C49.4172 48.4105 49.3989 48.3349 49.3829 48.2548C49.3746 48.2233 49.3685 48.1911 49.3646 48.1587L50.1587 48.0283C50.1587 48.0489 50.1587 48.0695 50.1702 48.0923C50.181 48.1442 50.1947 48.1954 50.2114 48.2457L49.4401 48.4837Z" fill="url(#paint16_linear_1452_20466)"/>
<path d="M56.6397 47.6554C56.6394 48.0052 56.5041 48.3414 56.2619 48.5939C56.0197 48.8463 55.6894 48.9955 55.3398 49.0102C55.3833 48.9644 55.4222 48.9187 55.4634 48.8706C55.5012 48.8267 55.5357 48.7801 55.5664 48.731C55.5845 48.7088 55.6006 48.6851 55.6145 48.6601C55.6455 48.6141 55.673 48.5659 55.6969 48.5159C55.7638 48.3935 55.8182 48.2647 55.8593 48.1314C55.8776 48.0628 55.896 47.9941 55.9097 47.9232C55.9234 47.8522 55.9303 47.7836 55.9394 47.7149C55.9486 47.6462 55.9509 47.573 55.9509 47.4998C55.9509 47.4266 55.9509 47.3968 55.9509 47.3465C55.9489 47.295 55.9436 47.2438 55.9349 47.1931C55.9349 47.1428 55.9188 47.0947 55.9074 47.0421C55.896 46.9894 55.8845 46.946 55.8708 46.8979C55.857 46.8498 55.8456 46.8178 55.8342 46.7766L56.3285 46.8018C56.5292 47.041 56.6394 47.3431 56.6397 47.6554Z" fill="url(#paint17_linear_1452_20466)"/>
<path d="M57.6459 46.8199V57.0359H57.5223C54.7761 54.5551 53.6524 51.1544 53.6318 51.1132C53.6062 51.0352 53.5575 50.9669 53.492 50.9175C53.4266 50.868 53.3476 50.8397 53.2656 50.8363V49.5959C53.4369 49.6391 53.613 49.6607 53.7897 49.66C53.9688 49.661 54.1473 49.6387 54.3206 49.5936C54.7157 49.7888 55.1609 49.8585 55.5967 49.7934C56.0324 49.7283 56.4379 49.5315 56.7586 49.2294C57.0794 48.9273 57.3001 48.5344 57.3912 48.1033C57.4823 47.6723 57.4394 47.2236 57.2683 46.8176L57.6459 46.8199Z" fill="url(#paint18_linear_1452_20466)"/>
</g>
<defs>
<filter id="filter0_d_1452_20466" x="0.4" y="0.4" width="92.2" height="113.827" filterUnits="userSpaceOnUse" color-interpolation-filters="sRGB">
<feFlood flood-opacity="0" result="BackgroundImageFix"/>
<feColorMatrix in="SourceAlpha" type="matrix" values="0 0 0 0 0 0 0 0 0 0 0 0 0 0 0 0 0 0 127 0" result="hardAlpha"/>
<feOffset dy="5"/>
<feGaussianBlur stdDeviation="7.8"/>
<feComposite in2="hardAlpha" operator="out"/>
<feColorMatrix type="matrix" values="0 0 0 0 0 0 0 0 0 0 0 0 0 0 0 0 0 0 0.15 0"/>
<feBlend mode="normal" in2="BackgroundImageFix" result="effect1_dropShadow_1452_20466"/>
<feBlend mode="normal" in="SourceGraphic" in2="effect1_dropShadow_1452_20466" result="shape"/>
</filter>
<linearGradient id="paint0_linear_1452_20466" x1="46.4555" y1="78.2643" x2="46.4555" y2="12.3136" gradientUnits="userSpaceOnUse">
<stop stop-color="#008851"/>
<stop offset="0.34" stop-color="#038B53"/>
<stop offset="0.6" stop-color="#0C955B"/>
<stop offset="0.83" stop-color="#1CA567"/>
<stop offset="1" stop-color="#2BB673"/>
</linearGradient>
<linearGradient id="paint1_linear_1452_20466" x1="46.4113" y1="93.6272" x2="46.4113" y2="81.8047" gradientUnits="userSpaceOnUse">
<stop stop-color="#008851"/>
<stop offset="0.34" stop-color="#038B53"/>
<stop offset="0.6" stop-color="#0C955B"/>
<stop offset="0.83" stop-color="#1CA567"/>
<stop offset="1" stop-color="#2BB673"/>
</linearGradient>
<linearGradient id="paint2_linear_1452_20466" x1="45.3088" y1="62.961" x2="45.3088" y2="60.1965" gradientUnits="userSpaceOnUse">
<stop stop-color="#F9ED32"/>
<stop offset="0.3" stop-color="#F9EA33"/>
<stop offset="0.53" stop-color="#F9E035"/>
<stop offset="0.75" stop-color="#FACF39"/>
<stop offset="0.94" stop-color="#FBB83E"/>
<stop offset="1" stop-color="#FBB040"/>
</linearGradient>
<linearGradient id="paint3_linear_1452_20466" x1="41.797" y1="65.1259" x2="41.797" y2="62.6726" gradientUnits="userSpaceOnUse">
<stop stop-color="#F9ED32"/>
<stop offset="0.3" stop-color="#F9EA33"/>
<stop offset="0.53" stop-color="#F9E035"/>
<stop offset="0.75" stop-color="#FACF39"/>
<stop offset="0.94" stop-color="#FBB83E"/>
<stop offset="1" stop-color="#FBB040"/>
</linearGradient>
<linearGradient id="paint4_linear_1452_20466" x1="41.797" y1="68.1192" x2="41.797" y2="59.6791" gradientUnits="userSpaceOnUse">
<stop stop-color="#F9ED32"/>
<stop offset="0.3" stop-color="#F9EA33"/>
<stop offset="0.53" stop-color="#F9E035"/>
<stop offset="0.75" stop-color="#FACF39"/>
<stop offset="0.94" stop-color="#FBB83E"/>
<stop offset="1" stop-color="#FBB040"/>
</linearGradient>
<linearGradient id="paint5_linear_1452_20466" x1="40.611" y1="67.1444" x2="40.611" y2="58.2581" gradientUnits="userSpaceOnUse">
<stop stop-color="#F9ED32"/>
<stop offset="0.3" stop-color="#F9EA33"/>
<stop offset="0.53" stop-color="#F9E035"/>
<stop offset="0.75" stop-color="#FACF39"/>
<stop offset="0.94" stop-color="#FBB83E"/>
<stop offset="1" stop-color="#FBB040"/>
</linearGradient>
<linearGradient id="paint6_linear_1452_20466" x1="43.0185" y1="71.9571" x2="43.0185" y2="64.9565" gradientUnits="userSpaceOnUse">
<stop stop-color="#F9ED32"/>
<stop offset="0.3" stop-color="#F9EA33"/>
<stop offset="0.53" stop-color="#F9E035"/>
<stop offset="0.75" stop-color="#FACF39"/>
<stop offset="0.94" stop-color="#FBB83E"/>
<stop offset="1" stop-color="#FBB040"/>
</linearGradient>
<linearGradient id="paint7_linear_1452_20466" x1="52.3759" y1="71.9572" x2="52.3759" y2="58.2581" gradientUnits="userSpaceOnUse">
<stop stop-color="#6D6E71"/>
<stop offset="0.23" stop-color="#6B7074"/>
<stop offset="0.42" stop-color="#65757E"/>
<stop offset="0.58" stop-color="#5B7E8F"/>
<stop offset="0.74" stop-color="#4C8AA6"/>
<stop offset="0.88" stop-color="#399AC4"/>
<stop offset="1" stop-color="#27AAE1"/>
</linearGradient>
<linearGradient id="paint8_linear_1452_20466" x1="36.8892" y1="57.036" x2="36.8892" y2="52.1729" gradientUnits="userSpaceOnUse">
<stop stop-color="#8B5E3C"/>
<stop offset="0.4" stop-color="#8E613E"/>
<stop offset="0.71" stop-color="#986B45"/>
<stop offset="0.99" stop-color="#A87B50"/>
<stop offset="1" stop-color="#A97C50"/>
</linearGradient>
<linearGradient id="paint9_linear_1452_20466" x1="38.0023" y1="54.507" x2="38.0023" y2="46.3164" gradientUnits="userSpaceOnUse">
<stop stop-color="#8B5E3C"/>
<stop offset="0.4" stop-color="#8E613E"/>
<stop offset="0.71" stop-color="#986B45"/>
<stop offset="0.99" stop-color="#A87B50"/>
<stop offset="1" stop-color="#A97C50"/>
</linearGradient>
<linearGradient id="paint10_linear_1452_20466" x1="43.7141" y1="51.7357" x2="43.7141" y2="44.0737" gradientUnits="userSpaceOnUse">
<stop stop-color="#8B5E3C"/>
<stop offset="0.4" stop-color="#8E613E"/>
<stop offset="0.71" stop-color="#986B45"/>
<stop offset="0.99" stop-color="#A87B50"/>
<stop offset="1" stop-color="#A97C50"/>
</linearGradient>
<linearGradient id="paint11_linear_1452_20466" x1="42.6413" y1="57.0359" x2="42.6413" y2="49.1016" gradientUnits="userSpaceOnUse">
<stop stop-color="#8B5E3C"/>
<stop offset="0.4" stop-color="#8E613E"/>
<stop offset="0.71" stop-color="#986B45"/>
<stop offset="0.99" stop-color="#A87B50"/>
<stop offset="1" stop-color="#A97C50"/>
</linearGradient>
<linearGradient id="paint12_linear_1452_20466" x1="52.339" y1="57.0359" x2="52.339" y2="53.4246" gradientUnits="userSpaceOnUse">
<stop stop-color="#BE1E2D"/>
<stop offset="0.69" stop-color="#E0462A"/>
<stop offset="1" stop-color="#F15A29"/>
</linearGradient>
<linearGradient id="paint13_linear_1452_20466" x1="52.3342" y1="50.834" x2="52.3342" y2="49.7126" gradientUnits="userSpaceOnUse">
<stop stop-color="#BE1E2D"/>
<stop offset="0.69" stop-color="#E0462A"/>
<stop offset="1" stop-color="#F15A29"/>
</linearGradient>
<linearGradient id="paint14_linear_1452_20466" x1="52.3679" y1="53.2026" x2="52.3679" y2="51.6418" gradientUnits="userSpaceOnUse">
<stop stop-color="#BE1E2D"/>
<stop offset="0.69" stop-color="#E0462A"/>
<stop offset="1" stop-color="#F15A29"/>
</linearGradient>
<linearGradient id="paint15_linear_1452_20466" x1="49.2501" y1="57.036" x2="49.2501" y2="44.0784" gradientUnits="userSpaceOnUse">
<stop stop-color="#BE1E2D"/>
<stop offset="0.69" stop-color="#E0462A"/>
<stop offset="1" stop-color="#F15A29"/>
</linearGradient>
<linearGradient id="paint16_linear_1452_20466" x1="51.8889" y1="49.1657" x2="51.8889" y2="45.9549" gradientUnits="userSpaceOnUse">
<stop stop-color="#BE1E2D"/>
<stop offset="0.69" stop-color="#E0462A"/>
<stop offset="1" stop-color="#F15A29"/>
</linearGradient>
<linearGradient id="paint17_linear_1452_20466" x1="55.9898" y1="49.0102" x2="55.9898" y2="46.7697" gradientUnits="userSpaceOnUse">
<stop stop-color="#BE1E2D"/>
<stop offset="0.69" stop-color="#E0462A"/>
<stop offset="1" stop-color="#F15A29"/>
</linearGradient>
<linearGradient id="paint18_linear_1452_20466" x1="55.4603" y1="57.0359" x2="55.4603" y2="46.8176" gradientUnits="userSpaceOnUse">
<stop stop-color="#BE1E2D"/>
<stop offset="0.69" stop-color="#E0462A"/>
<stop offset="1" stop-color="#F15A29"/>
</linearGradient>
</defs>
</svg>
