<svg width="21" height="23" viewBox="0 0 21 23" fill="none" xmlns="http://www.w3.org/2000/svg">
<path d="M5.50667 9.53141C7.18667 12.8083 9.89333 15.4946 13.195 17.1619L14.4783 15.8883C14.805 15.564 15.26 15.4714 15.6683 15.5988C16.975 16.0272 18.375 16.2588 19.8333 16.2588C20.1428 16.2588 20.4395 16.3808 20.6583 16.5979C20.8771 16.8151 21 17.1096 21 17.4167V21.4693C21 21.7764 20.8771 22.0709 20.6583 22.2881C20.4395 22.5052 20.1428 22.6272 19.8333 22.6272C14.5732 22.6272 9.52852 20.5533 5.80905 16.8618C2.08958 13.1703 0 8.16356 0 2.94299C0 2.29457 0.525 1.78509 1.16667 1.78509H5.25C5.55942 1.78509 5.85616 1.90708 6.07496 2.12423C6.29375 2.34138 6.41667 2.63589 6.41667 2.94299C6.41667 4.37878 6.65 5.77983 7.08167 7.07667C7.21 7.48193 7.11667 7.93351 6.79 8.24614L5.50667 9.53141ZM17.3333 12.2061C16.781 12.2061 16.3333 11.7584 16.3333 11.2061V10.8904C16.3333 10.3381 16.781 9.89036 17.3333 9.89036H17.6667C18.219 9.89036 18.6667 10.3381 18.6667 10.8904V11.2061C18.6667 11.7584 18.219 12.2061 17.6667 12.2061H17.3333ZM17.3333 7.57457C16.781 7.57457 16.3333 7.12685 16.3333 6.57457V1.6272C16.3333 1.07491 16.781 0.627197 17.3333 0.627197H17.6667C18.219 0.627197 18.6667 1.07491 18.6667 1.6272V6.57457C18.6667 7.12685 18.219 7.57457 17.6667 7.57457H17.3333Z" fill="#BBBBBB"/>
</svg>
