<svg width="23" height="23" viewBox="0 0 23 23" fill="none" xmlns="http://www.w3.org/2000/svg">
<path d="M1.5 11.5H4.49987" stroke="#6D6E71" stroke-width="1.25" stroke-linecap="round" stroke-linejoin="round"/>
<path d="M18.5 11.5H21.4999" stroke="#6D6E71" stroke-width="1.25" stroke-linecap="round" stroke-linejoin="round"/>
<path d="M11.5 1.5V4.49999" stroke="#6D6E71" stroke-width="1.25" stroke-linecap="round" stroke-linejoin="round"/>
<path d="M11.5 18.5V21.5" stroke="#6D6E71" stroke-width="1.25" stroke-linecap="round" stroke-linejoin="round"/>
<path d="M11.4997 18.5C15.3655 18.5 18.4994 15.366 18.4994 11.5C18.4994 7.634 15.3655 4.5 11.4997 4.5C7.63387 4.5 4.5 7.634 4.5 11.5C4.5 15.366 7.63387 18.5 11.4997 18.5Z" stroke="#6D6E71" stroke-width="1.25" stroke-linecap="round" stroke-linejoin="round"/>
<path d="M11.4999 14.5C13.1567 14.5 14.4997 13.1568 14.4997 11.5C14.4997 9.84314 13.1567 8.5 11.4999 8.5C9.84309 8.5 8.5 9.84314 8.5 11.5C8.5 13.1568 9.84309 14.5 11.4999 14.5Z" stroke="#6D6E71" stroke-width="1.25" stroke-linecap="round" stroke-linejoin="round"/>
</svg>
