<svg width="18" height="23" viewBox="0 0 18 23" fill="none" xmlns="http://www.w3.org/2000/svg">
<path d="M15.75 15.858V10.2169C15.75 6.75335 13.905 3.85386 10.6875 3.08668V2.3195C10.6875 1.38309 9.93375 0.627197 9 0.627197C8.06625 0.627197 7.3125 1.38309 7.3125 2.3195V3.08668C4.08375 3.85386 2.25 6.74207 2.25 10.2169V15.858L0 18.1144V19.2426H18V18.1144L15.75 15.858ZM9 22.6272C10.2375 22.6272 11.25 21.6118 11.25 20.3708H6.75C6.75 20.9692 6.98705 21.5431 7.40901 21.9663C7.83097 22.3895 8.40326 22.6272 9 22.6272Z" fill="#BBBBBB"/>
</svg>
